<?xml version="1.0" encoding="iso-8859-1"?>
<!-- Generator: Adobe Illustrator 17.1.0, SVG Export Plug-In . SVG Version: 6.00 Build 0)  -->
<!DOCTYPE svg PUBLIC "-//W3C//DTD SVG 1.1//EN" "http://www.w3.org/Graphics/SVG/1.1/DTD/svg11.dtd">
<svg version="1.1" id="Capa_1" xmlns="http://www.w3.org/2000/svg" xmlns:xlink="http://www.w3.org/1999/xlink" x="0px" y="0px"
	 viewBox="0 0 334.938 334.938" style="enable-background:new 0 0 334.938 334.938;" xml:space="preserve">
<path d="M170.124,75.058c20.692,0,37.527-16.836,37.527-37.529S190.817,0,170.124,0c-20.694,0-37.53,16.835-37.53,37.528
	S149.43,75.058,170.124,75.058z M170.124,18c10.768,0,19.527,8.761,19.527,19.528c0,10.769-8.76,19.529-19.527,19.529
	c-10.769,0-19.53-8.761-19.53-19.529C150.594,26.761,159.356,18,170.124,18z M228.453,325.934c0,4.971-4.029,9-9,9h-24.278
	c-0.015,0-0.031,0.003-0.046,0.003c-0.306,0-0.607-0.019-0.907-0.049c-0.012-0.001-0.024-0.003-0.037-0.005
	c-0.274-0.029-0.545-0.07-0.812-0.124c-0.076-0.015-0.15-0.036-0.225-0.053c-0.199-0.045-0.396-0.093-0.591-0.152
	c-0.104-0.031-0.204-0.067-0.306-0.102c-0.162-0.055-0.322-0.111-0.479-0.175c-0.114-0.046-0.225-0.096-0.337-0.146
	c-0.141-0.064-0.28-0.13-0.417-0.201c-0.115-0.06-0.229-0.121-0.341-0.186c-0.129-0.073-0.254-0.15-0.379-0.23
	c-0.111-0.071-0.22-0.142-0.327-0.217c-0.122-0.085-0.239-0.175-0.356-0.267c-0.101-0.079-0.202-0.157-0.3-0.24
	c-0.118-0.1-0.231-0.206-0.344-0.313c-0.088-0.083-0.178-0.164-0.263-0.251c-0.115-0.118-0.224-0.242-0.332-0.366
	c-0.074-0.084-0.152-0.167-0.223-0.254c-0.111-0.137-0.214-0.281-0.317-0.424c-0.06-0.083-0.124-0.163-0.181-0.249
	c-0.106-0.158-0.202-0.324-0.298-0.49c-0.132-0.226-0.252-0.459-0.364-0.697c-0.042-0.09-0.089-0.175-0.128-0.267
	c-0.081-0.188-0.149-0.384-0.217-0.579c-0.024-0.069-0.053-0.136-0.075-0.206c-0.064-0.2-0.116-0.405-0.167-0.611
	c-0.017-0.07-0.038-0.139-0.054-0.209c-0.044-0.2-0.076-0.404-0.106-0.608c-0.01-0.066-0.026-0.13-0.034-0.196l-0.021-0.168
	c-0.002-0.022-0.006-0.043-0.008-0.064l-22.419-176.399c-0.627-4.931,2.862-9.437,7.793-10.063c4.937-0.63,9.437,2.862,10.063,7.793
	l21.448,168.765h16.385C224.423,316.934,228.453,320.963,228.453,325.934z M248.231,223.257c-1.1,0.442-2.236,0.651-3.354,0.651
	c-3.566,0-6.941-2.134-8.354-5.646l-28.386-70.611c-8.646-21.51-16.798-35.302-30.702-37.595
	c-4.435-0.699-34.578-0.594-38.856,0.135c-16.331,3.052-27.85,20.757-38.247,38.629l-0.317,0.547l18.36,47.494
	c1.792,4.636-0.513,9.848-5.149,11.64c-4.633,1.79-9.847-0.514-11.64-5.149l-19.919-51.525c-0.985-2.548-0.76-5.405,0.613-7.768
	l2.491-4.286c11.949-20.541,26.691-42.825,50.516-47.277c6.428-1.205,39.362-1.143,45.078-0.198
	c24.629,4.062,35.87,27.237,44.474,48.642l28.386,70.611C255.079,216.161,252.843,221.402,248.231,223.257z M161.615,233.533
	l-28.266,83.4h11.763c4.971,0,9,4.029,9,9s-4.029,9-9,9h-24.253c-0.021,0-0.042,0.005-0.063,0.005c-0.295,0-0.592-0.02-0.889-0.05
	c-0.037-0.003-0.073-0.009-0.11-0.013c-0.232-0.026-0.465-0.062-0.697-0.106c-0.083-0.016-0.165-0.033-0.247-0.051
	c-0.178-0.04-0.356-0.086-0.533-0.137c-0.103-0.03-0.206-0.058-0.307-0.09c-0.036-0.012-0.072-0.02-0.107-0.032
	c-0.088-0.03-0.17-0.069-0.257-0.102c-0.162-0.061-0.324-0.121-0.482-0.191c-0.134-0.059-0.263-0.124-0.393-0.189
	c-0.128-0.064-0.256-0.127-0.38-0.197c-0.15-0.084-0.294-0.175-0.438-0.267c-0.096-0.061-0.192-0.121-0.285-0.186
	c-0.155-0.107-0.304-0.221-0.452-0.338c-0.077-0.061-0.155-0.122-0.23-0.186c-0.147-0.124-0.287-0.253-0.425-0.386
	c-0.072-0.069-0.144-0.137-0.213-0.209c-0.127-0.131-0.249-0.266-0.367-0.404c-0.074-0.085-0.147-0.171-0.218-0.259
	c-0.103-0.129-0.2-0.261-0.296-0.396c-0.077-0.107-0.152-0.216-0.224-0.327c-0.079-0.122-0.153-0.247-0.226-0.372
	c-0.076-0.13-0.15-0.261-0.219-0.395c-0.06-0.117-0.116-0.235-0.171-0.354c-0.067-0.146-0.133-0.292-0.192-0.442
	c-0.048-0.121-0.091-0.242-0.134-0.365c-0.052-0.149-0.103-0.299-0.147-0.452c-0.04-0.138-0.073-0.277-0.107-0.417
	c-0.033-0.139-0.066-0.277-0.093-0.418c-0.032-0.167-0.055-0.336-0.077-0.506c-0.015-0.117-0.033-0.234-0.043-0.353
	c-0.018-0.197-0.025-0.395-0.03-0.594c-0.002-0.075-0.011-0.148-0.011-0.223c0-0.027,0.004-0.052,0.004-0.079
	c0.002-0.19,0.015-0.381,0.029-0.573c0.009-0.118,0.014-0.237,0.027-0.354c0.016-0.144,0.042-0.287,0.066-0.431
	c0.026-0.165,0.052-0.33,0.087-0.492c0.021-0.095,0.049-0.189,0.073-0.284c0.052-0.207,0.107-0.412,0.174-0.612
	c0.007-0.021,0.01-0.041,0.017-0.061l32.296-95.291c1.595-4.709,6.707-7.237,11.412-5.635
	C160.688,223.716,163.21,228.826,161.615,233.533z"/>
<g>
</g>
<g>
</g>
<g>
</g>
<g>
</g>
<g>
</g>
<g>
</g>
<g>
</g>
<g>
</g>
<g>
</g>
<g>
</g>
<g>
</g>
<g>
</g>
<g>
</g>
<g>
</g>
<g>
</g>
</svg>
