<?xml version="1.0" encoding="utf-8"?>
<!-- Generator: Adobe Illustrator 19.1.0, SVG Export Plug-In . SVG Version: 6.00 Build 0)  -->
<svg version="1.1" id="Capa_1" xmlns="http://www.w3.org/2000/svg" xmlns:xlink="http://www.w3.org/1999/xlink" x="0px" y="0px"
	 viewBox="-383 145 512 512" style="enable-background:new -383 145 512 512;" xml:space="preserve">
<style type="text/css">
	.st0{fill:#E9E9F0;}
</style>
<g>
	<path class="st0" d="M-137.5,401.2L22.3,241.3c8.1-8.1,12.2-18,12.2-29.8c0-11.7-4.1-21.6-12.2-29.8l-24.7-24.7
		c-8.1-8.1-18-12.2-29.8-12.2s-21.6,4.1-29.8,12.2l-214.4,214.1c-8.1,8.1-12.2,18-12.2,29.8s4.1,21.6,12.2,29.8l214.4,214.1
		c8.1,8.1,18,12.2,29.8,12.2s21.6-4.1,29.8-12.2l24.7-24.7c8.1-8.1,12.2-18,12.2-29.6c0-11.6-4.1-21.6-12.2-29.9L-137.5,401.2z"/>
</g>
</svg>
