<?xml version="1.0" encoding="utf-8"?>
<!-- Generator: Adobe Illustrator 19.1.0, SVG Export Plug-In . SVG Version: 6.00 Build 0)  -->
<svg version="1.1" id="Capa_1" xmlns="http://www.w3.org/2000/svg" xmlns:xlink="http://www.w3.org/1999/xlink" x="0px" y="0px"
	 viewBox="-383 145 512 512" style="enable-background:new -383 145 512 512;" xml:space="preserve">
<style type="text/css">
	.st0{fill:#E9E9F0;}
</style>
<g>
	<path class="st0" d="M-126.8,411.5l-159.8-159.8c-8.1-8.1-18-12.2-29.8-12.2c-11.7,0-21.6,4.1-29.8,12.2l-24.7,24.7
		c-8.1,8.1-12.2,18-12.2,29.8c0,11.7,4.1,21.6,12.2,29.8l214.1,214.4c8.1,8.1,18,12.2,29.8,12.2s21.6-4.1,29.8-12.2l214.1-214.4
		c8.1-8.1,12.2-18,12.2-29.8c0-11.7-4.1-21.6-12.2-29.8l-24.7-24.7c-8.1-8.1-18-12.2-29.6-12.2c-11.6,0-21.6,4.1-29.9,12.2
		L-126.8,411.5z"/>
</g>
</svg>
