<?xml version="1.0" ?><!DOCTYPE svg  PUBLIC '-//W3C//DTD SVG 1.1//EN'  'http://www.w3.org/Graphics/SVG/1.1/DTD/svg11.dtd'><svg enable-background="new 0 0 91 91" height="91px" id="Layer_1" version="1.1" viewBox="0 0 91 91" width="91px" xml:space="preserve" xmlns="http://www.w3.org/2000/svg" xmlns:xlink="http://www.w3.org/1999/xlink"><g><path d="M38.203,40.157H27.578v10.625h10.625V40.157z M34.804,47.382h-3.825v-3.824h3.825V47.382z"/><path d="M27.578,65.101h10.625V54.476H27.578V65.101z M30.979,57.874h3.825V61.7h-3.825V57.874z"/><path d="M72.141,37.466V36.19v-3.4V22.093H62.5v-2.76h-3.4v2.76H48.191v-2.76h-3.4v2.76h-10.91v-2.76h-3.4v2.76H20.84V32.79v3.4   v36.625h44.783c3.594,0,6.518-2.926,6.518-6.52V49.083h-3.4v17.213c0,1.719-1.398,3.119-3.117,3.119H24.24V36.19h44.5v4.244   l-3.337,2.912v-3.189H41.179v24.943h24.225v-9.715h-3.399V61.7H44.578V43.558h17.426v2.758l-8.38,7.313l-3.704-5.494l-2.82,1.898   l5.858,8.689l26.783-23.377l-2.235-2.561L72.141,37.466z M68.74,32.79h-44.5v-7.297h6.24v2.906h3.4v-2.906h10.91v2.906h3.4v-2.906   H59.1v2.906h3.4v-2.906h6.24V32.79z"/></g></svg>