<?xml version="1.0" encoding="iso-8859-1"?>
<!-- Generator: Adobe Illustrator 19.0.0, SVG Export Plug-In . SVG Version: 6.00 Build 0)  -->
<svg version="1.1" id="Capa_1" xmlns="http://www.w3.org/2000/svg" xmlns:xlink="http://www.w3.org/1999/xlink" x="0px" y="0px"
	 viewBox="0 0 512 512" style="enable-background:new 0 0 512 512;" xml:space="preserve">
<g>
	<g>
		<path d="M426.667,234.667c-47.061,0-85.333,38.272-85.333,85.333s38.272,85.333,85.333,85.333S512,367.062,512,320.001
			C512,272.939,473.728,234.667,426.667,234.667z M426.667,384.001c-35.285,0-64-28.715-64-64s28.715-64,64-64s64,28.715,64,64
			S461.952,384.001,426.667,384.001z"/>
	</g>
</g>
<g>
	<g>
		<path d="M168,299.713c-1.408-5.717-7.232-9.237-12.885-7.829c-5.717,1.387-9.237,7.147-7.829,12.885s2.048,10.56,2.048,15.232
			c0,35.285-28.715,64-64,64s-64-28.715-64-64c0-25.088,14.869-47.957,37.888-58.304c5.376-2.411,7.765-8.725,5.355-14.101
			c-2.411-5.355-8.747-7.787-14.101-5.355C19.819,256.001,0,286.529,0,320.001c0,47.061,38.272,85.333,85.333,85.333
			s85.333-38.272,85.333-85.333C170.667,313.686,169.792,307.051,168,299.713z"/>
	</g>
</g>
<g>
	<g>
		<path d="M402.069,109.675c-2.048-2.005-4.843-3.051-7.744-3.008c-7.595,0.235-74.325,3.456-74.325,42.667
			c0,39.211,66.731,42.432,74.325,42.667c0.107,0,0.235,0,0.341,0c2.773,0,5.44-1.067,7.424-3.008
			c2.069-2.005,3.243-4.779,3.243-7.659v-64C405.333,114.454,404.16,111.681,402.069,109.675z M384,169.793
			c-18.837-2.304-42.667-8.981-42.667-20.459c0-11.947,24.491-18.219,42.667-20.437V169.793z"/>
	</g>
</g>
<g>
	<g>
		<path d="M334.059,128.555l-64-21.333c-5.547-1.813-11.605,1.152-13.504,6.741c-1.856,5.589,1.152,11.627,6.741,13.483l64,21.333
			c1.131,0.384,2.24,0.555,3.371,0.555c4.459,0,8.619-2.816,10.133-7.296C342.656,136.449,339.648,130.411,334.059,128.555z"/>
	</g>
</g>
<g>
	<g>
		<path d="M435.947,314.71l-85.333-149.333c-2.987-5.163-9.536-6.891-14.571-3.968c-5.141,2.923-6.912,9.429-3.989,14.549
			l85.333,149.333c1.984,3.456,5.589,5.376,9.28,5.376c1.813,0,3.627-0.448,5.291-1.408
			C437.099,326.337,438.869,319.83,435.947,314.71z"/>
	</g>
</g>
<g>
	<g>
		<path d="M160,309.334h-57.408l13.632-27.221c2.624-5.269,0.491-11.669-4.779-14.315c-5.269-2.581-11.648-0.491-14.315,4.779
			l-21.333,42.667c-1.664,3.285-1.493,7.232,0.448,10.368c1.963,3.136,5.397,5.056,9.088,5.056H160
			c5.888,0,10.667-4.779,10.667-10.667S165.888,309.334,160,309.334z"/>
	</g>
</g>
<g>
	<g>
		<path d="M344.363,161.217c-3.093-11.029-11.264-11.883-13.696-11.883c-57.621,0-112.512,29.568-143.552,55.019
			c-1.685-1.067-3.648-1.685-5.781-1.685c-21.504,0-82.923-10.411-83.541-10.517c-3.115-0.555-6.272,0.32-8.661,2.368
			c-2.432,2.027-3.797,5.013-3.797,8.149v10.816c-34.837,1.003-57.813,7.083-68.416,18.133c-6.08,6.336-6.315,12.437-6.251,14.165
			c0.256,5.717,4.949,10.219,10.667,10.219c43.2,0,141.205,60.267,175.339,83.477c1.771,1.216,3.84,1.856,5.995,1.856H288
			c36.245,0,57.813-141.013,57.813-166.123C345.813,169.323,345.344,164.758,344.363,161.217z M288,320.001h-82.091
			c-16.448-11.008-99.115-65.109-156.971-80.96c9.6-2.389,24.405-4.373,47.061-4.373c5.888,0,10.667-4.779,10.667-10.667v-8.789
			c16.277,2.603,44.864,6.891,64,8.32v0.469c0,4.352,2.624,8.256,6.656,9.899c4.096,1.621,8.64,0.661,11.669-2.453
			c22.059-22.699,77.568-58.283,135.573-60.651C327.488,198.529,302.592,310.358,288,320.001z"/>
	</g>
</g>
<g>
</g>
<g>
</g>
<g>
</g>
<g>
</g>
<g>
</g>
<g>
</g>
<g>
</g>
<g>
</g>
<g>
</g>
<g>
</g>
<g>
</g>
<g>
</g>
<g>
</g>
<g>
</g>
<g>
</g>
</svg>
