<?xml version="1.0" encoding="iso-8859-1"?>
<!-- Generator: Adobe Illustrator 19.0.0, SVG Export Plug-In . SVG Version: 6.00 Build 0)  -->
<svg version="1.1" id="Capa_1" xmlns="http://www.w3.org/2000/svg" xmlns:xlink="http://www.w3.org/1999/xlink" x="0px" y="0px"
	 viewBox="0 0 512 512" style="enable-background:new 0 0 512 512;" xml:space="preserve">
<g>
	<g>
		<path d="M405.333,192.006c-58.816,0-106.667,47.851-106.667,106.667s47.851,106.667,106.667,106.667
			c58.816,0,106.667-47.851,106.667-106.667S464.149,192.006,405.333,192.006z M405.333,384.006
			c-47.061,0-85.333-38.272-85.333-85.333s38.272-85.333,85.333-85.333c47.061,0,85.333,38.272,85.333,85.333
			S452.395,384.006,405.333,384.006z"/>
	</g>
</g>
<g>
	<g>
		<path d="M373.333,106.673h-42.667c-3.691,0-7.125,1.941-9.067,5.077s-2.133,7.061-0.469,10.368l18.56,37.12l-81.899,122.859
			c-3.264,4.907-1.941,11.52,2.965,14.784c1.835,1.216,3.883,1.792,5.909,1.792c3.435,0,6.827-1.664,8.875-4.757l85.333-128
			c2.112-3.179,2.368-7.253,0.661-10.688l-13.611-27.221h25.408c22.784,0,32,7.531,32,10.667c0,7.083-3.584,10.667-10.667,10.667
			c-5.888,0-10.667,4.757-10.667,10.667c0,5.909,4.779,10.667,10.667,10.667c18.837,0,32-13.141,32-32
			C426.667,122.758,410.176,106.673,373.333,106.673z"/>
	</g>
</g>
<g>
	<g>
		<path d="M244.437,283.739l-74.667-170.667c-2.368-5.397-8.619-7.893-14.037-5.504c-5.419,2.368-7.872,8.661-5.504,14.037
			l74.667,170.667c1.749,4.011,5.653,6.4,9.771,6.4c1.429,0,2.88-0.277,4.267-0.896
			C244.352,295.409,246.805,289.137,244.437,283.739z"/>
	</g>
</g>
<g>
	<g>
		<path d="M202.667,106.673h-64c-5.888,0-10.667,4.757-10.667,10.667c0,5.909,4.779,10.667,10.667,10.667h64
			c5.888,0,10.667-4.779,10.667-10.667S208.555,106.673,202.667,106.673z"/>
	</g>
</g>
<g>
	<g>
		<path d="M415.296,294.833l-53.333-138.667c-1.771-4.565-6.4-7.317-11.285-6.741l-170.667,21.333
			c-3.157,0.405-5.973,2.197-7.68,4.864L97.664,292.955c-3.179,4.949-1.707,11.563,3.264,14.72
			c4.992,3.157,11.584,1.707,14.72-3.264l71.979-113.109l157.419-19.669l50.325,130.88c1.643,4.224,5.675,6.827,9.963,6.827
			c1.28,0,2.581-0.213,3.84-0.725C414.656,306.502,417.408,300.337,415.296,294.833z"/>
	</g>
</g>
<g>
	<g>
		<path d="M202.432,309.809c-5.803-1.344-11.477,2.261-12.8,8c-8.96,38.976-43.072,66.197-82.965,66.197
			c-47.061,0-85.333-38.272-85.333-85.333s38.272-85.333,85.333-85.333c44.053,0,81.237,34.624,84.629,78.827
			c0.469,5.867,5.675,10.261,11.456,9.813c5.867-0.448,10.261-5.589,9.813-11.456c-4.245-55.253-50.773-98.517-105.899-98.517
			C47.851,192.006,0,239.857,0,298.673s47.851,106.667,106.667,106.667c49.877,0,92.544-34.005,103.765-82.731
			C211.755,316.849,208.171,311.131,202.432,309.809z"/>
	</g>
</g>
<g>
	<g>
		<path d="M244.501,277.361l-138.667,10.667c-5.248,0.405-9.408,4.587-9.813,9.835c-0.405,5.269,3.093,10.005,8.235,11.2
			l128.853,29.739c4.011,1.685,8.107,2.539,12.224,2.539c17.643,0,32-14.357,32-32C277.333,291.419,262.784,275.931,244.501,277.361
			z M240.939,318.939c-0.661-0.299-1.344-0.533-2.069-0.704l-61.867-14.272l68.672-5.291c5.717,0.192,10.325,4.885,10.325,10.667
			C256,316.635,249.024,322.715,240.939,318.939z"/>
	</g>
</g>
<g>
</g>
<g>
</g>
<g>
</g>
<g>
</g>
<g>
</g>
<g>
</g>
<g>
</g>
<g>
</g>
<g>
</g>
<g>
</g>
<g>
</g>
<g>
</g>
<g>
</g>
<g>
</g>
<g>
</g>
</svg>
